<?xml version="1.0" encoding="utf-8"?>
<svg viewBox="-548.695 -665.265 1587.0161 1866.723" xmlns="http://www.w3.org/2000/svg">
  <path id="Exhaustion" d="M 698.025 262.237 C 653.003 187.308 644.063 124.087 645.993 74.557 C 649.016 -3.266 678.795 -142.383 710.31 -213.133 L 792.185 -372.763 C 822.092 -425.438 818.619 -428.912 857.081 -484.413 C 895.671 -540.562 967.581 -641.663 1038.321 -664.503 C 1038.321 -647.137 1036.199 -623.083 1031.89 -606.618 L 942.426 -411.928 C 896.246 -289.988 878.688 -246.308 854.698 -118.388 C 854.698 -118.388 824.083 61.502 843.378 94.052 C 855.405 113.733 972.788 236.702 972.788 236.702 C 1051.19 325.588 1020.19 483.232 1018.839 525.422 C 1011.442 577.39 1000.316 629.362 985.266 679.722 C 954.844 781.732 865.826 933.132 808.776 1025.812 C 775.331 1080.224 695.386 1187.442 633.126 1200.692 C 633.126 1167.44 647.597 1109.877 658.017 1094.572 C 797.137 842.962 844.537 551.092 830.127 444.972 C 801.506 362.261 754.169 326.562 698.017 262.252 L 698.025 262.237 Z M 308.135 261.465 C 263.049 186.472 254.173 123.315 256.038 73.725 C 259.061 -4.034 288.84 -143.215 320.355 -213.895 L 402.23 -373.525 C 432.202 -426.265 428.664 -429.738 467.126 -485.175 C 505.716 -541.324 577.626 -642.495 648.366 -665.265 C 648.366 -647.964 646.244 -623.909 641.935 -607.38 L 552.535 -412.69 C 506.356 -290.81 488.733 -247.07 464.807 -119.21 C 464.807 -119.21 434.128 60.68 453.423 93.23 C 465.515 112.975 582.893 235.95 582.893 235.95 C 661.231 324.771 630.295 482.48 628.879 524.67 C 621.547 576.574 610.356 628.54 595.37 678.97 C 564.884 780.91 475.93 932.38 418.88 1025.06 C 385.371 1079.472 305.43 1186.69 243.17 1199.94 C 243.234 1166.688 257.706 1109.06 268.125 1093.82 C 407.175 842.15 454.645 550.34 440.175 444.22 C 411.618 361.444 364.217 325.81 308.135 261.5 L 308.135 261.465 Z M -85.805 263.073 C -130.891 188.08 -139.767 124.923 -137.837 75.333 C -134.878 -2.426 -105.1 -141.607 -73.52 -212.287 L 8.291 -371.917 C 38.263 -424.657 34.725 -428.13 73.187 -483.637 C 111.777 -539.721 183.747 -640.887 254.497 -663.727 C 254.433 -646.361 252.311 -622.307 248.066 -605.842 L 158.601 -411.092 C 112.422 -289.212 94.799 -245.472 70.873 -117.612 C 70.873 -117.612 40.194 62.278 59.489 94.828 C 71.581 114.509 188.959 237.548 188.959 237.548 C 267.361 326.369 236.36 484.078 234.945 526.268 C 227.613 578.172 216.422 630.138 201.372 680.498 C 170.95 782.508 82.002 933.968 24.952 1026.648 C -8.557 1081.06 -88.498 1188.278 -150.698 1201.458 C -150.698 1168.271 -136.291 1110.643 -125.807 1095.338 C 13.313 843.728 60.713 551.858 46.243 445.738 C 17.686 363.027 -29.715 327.398 -85.797 263.078 L -85.805 263.073 Z M -483.795 262.237 C -528.817 187.308 -537.757 124.087 -535.827 74.557 C -532.804 -3.266 -503.025 -142.383 -471.51 -213.133 L -389.635 -372.763 C -359.728 -425.438 -363.201 -428.912 -324.739 -484.413 C -286.149 -540.562 -214.239 -641.663 -143.499 -664.503 C -143.499 -647.137 -145.621 -623.083 -149.93 -606.618 L -239.395 -411.928 C -285.574 -289.988 -303.133 -246.308 -327.123 -118.388 C -327.123 -118.388 -357.738 61.502 -338.443 94.052 C -326.416 113.733 -209.033 236.702 -209.033 236.702 C -130.631 325.588 -161.632 483.232 -162.982 525.422 C -170.379 577.39 -181.505 629.362 -196.555 679.722 C -226.977 781.732 -315.995 933.132 -373.045 1025.812 C -406.49 1080.224 -486.435 1187.442 -548.695 1200.692 C -548.695 1167.44 -534.224 1109.877 -523.74 1094.572 C -384.69 842.962 -337.22 551.092 -351.76 444.972 C -380.317 362.261 -427.654 326.562 -483.8 262.252 L -483.795 262.237 Z" style="fill: var(--icon-fill, #fff);" transform="matrix(1, 0, 0, 1, 0, 2.2737367544323206e-13)"/>
  <path d="M -51.474 -253.976 L -49.109 -254.195 Q -48.808 -252.527 -47.96 -251.775 Q -47.112 -251.023 -45.786 -251.023 Q -44.651 -251.023 -43.797 -251.542 Q -42.943 -252.062 -42.396 -252.93 Q -41.849 -253.798 -41.48 -255.275 Q -41.11 -256.751 -41.11 -258.282 Q -41.11 -258.446 -41.124 -258.775 Q -41.862 -257.599 -43.141 -256.867 Q -44.419 -256.136 -45.909 -256.136 Q -48.398 -256.136 -50.12 -257.941 Q -51.843 -259.745 -51.843 -262.698 Q -51.843 -265.747 -50.045 -267.607 Q -48.247 -269.466 -45.54 -269.466 Q -43.585 -269.466 -41.965 -268.413 Q -40.345 -267.361 -39.504 -265.412 Q -38.663 -263.464 -38.663 -259.773 Q -38.663 -255.931 -39.497 -253.654 Q -40.331 -251.378 -41.979 -250.189 Q -43.626 -248.999 -45.841 -248.999 Q -48.193 -248.999 -49.683 -250.305 Q -51.173 -251.611 -51.474 -253.976 Z M -41.398 -262.821 Q -41.398 -264.941 -42.526 -266.185 Q -43.653 -267.429 -45.239 -267.429 Q -46.88 -267.429 -48.097 -266.089 Q -49.314 -264.749 -49.314 -262.616 Q -49.314 -260.702 -48.158 -259.506 Q -47.003 -258.31 -45.308 -258.31 Q -43.599 -258.31 -42.498 -259.506 Q -41.398 -260.702 -41.398 -262.821 Z" transform="matrix(50.21428680419922, 0, 0, 50.21428680419922, 2546.666748046875, 13272.125976562502)" style="fill: rgb(195, 0, 0);"/>
</svg>