<?xml version="1.0" encoding="utf-8"?>
<svg viewBox="-565.2499 -682.502 1644.2698 1866.726" xmlns="http://www.w3.org/2000/svg">
  <path d="M 128.192 -682.499 L 251.972 -682.499 L 343.462 -682.499 C 480.482 -683.038 621.862 -609.576 714.322 -511.039 L 889.602 -252.709 L 998.802 -107.399 C 1067.474 2.231 1097.127 109.761 1067.689 237.031 C 1045.731 332.019 985.563 405.481 903.169 455.261 C 841.278 492.664 763.189 513.761 727.719 581.461 C 701.617 631.296 708.129 674.943 703.124 726.771 L 669.434 936.661 C 638.435 1046.561 534.944 1125.021 429.564 1158.661 L 359.816 1173.676 C 323.812 1180.618 345.124 1184.117 295.019 1184.224 L 208.91 1184.224 C 189.589 1183.901 93.9 1162.105 74.37 1154.947 C 36.321 1141.17 -6.68 1120.127 -38.65 1095.371 C -72.125 1069.377 -113.726 1027.829 -133.8 990.481 C -162.7 936.609 -179.76 797.651 -187.779 732.151 C -194.399 678.548 -185.25 634.472 -213.02 581.461 C -248.486 513.758 -326.58 492.661 -388.47 455.261 C -467.905 407.255 -514.57 351.451 -545.3 263.941 C -590.399 135.321 -554.342 4.701 -484.109 -107.399 L -374.909 -252.709 C -374.909 -252.709 -209.259 -500.269 -209.259 -500.269 C -122.666 -601.289 -1.149 -659.789 128.181 -682.499 L 128.192 -682.499 Z M 69.261 -304.109 C 34.387 -288.717 35.571 -242.38 26.368 -209.659 C 18.833 -182.965 5.433 -161.6 -11.197 -139.696 C -45.856 -93.951 -112.317 -43.9 -162.427 -15.216 C -199.884 6.204 -260.591 33.812 -283.677 70.301 C -290.297 80.688 -297.993 95.542 -299.338 107.866 C -303.805 148.768 -262.796 198.28 -227.007 212.916 C -189.55 228.254 -140.253 221.473 -103.227 208.233 C -63.187 193.917 -30.681 164.425 -0.977 134.772 C 72.323 61.418 102.833 -7.418 122.803 -107.408 C 128.508 -136.039 133.19 -152.938 133.567 -182.753 C 134.105 -229.844 138.626 -311.053 69.255 -304.113 L 69.261 -304.109 Z M 424.301 -304.109 C 359.72 -277.792 381.085 -161.549 391.903 -107.409 C 414.56 6.041 453.793 82.891 542.593 160.121 C 593.236 204.144 656.903 233.905 725.573 218.029 C 769.058 208.019 819.162 155.008 814.05 107.859 C 812.435 93.113 800.434 71.532 791.285 59.961 C 770.027 33.052 708.137 2.537 677.135 -15.223 C 629.883 -42.293 563.415 -91.86 530.055 -134.323 C 514.932 -153.536 499.971 -175.763 491.737 -198.904 C 475.107 -245.349 484.31 -310.034 424.303 -304.114 L 424.301 -304.109 Z M 257.361 234.771 C 173.674 240.906 167.916 283.207 150.371 350.051 C 150.371 350.051 126.637 436.16 126.637 436.16 C 99.136 532.978 75.51 597.94 68.514 699.87 L 64.585 737.542 L 68.514 775.214 C 75.241 871.763 86.866 919.824 187.394 952.324 C 205.315 958.082 238.521 963.41 257.357 963.41 C 276.193 963.41 309.399 958.082 327.32 952.324 C 427.85 919.818 439.48 871.759 446.2 775.214 L 450.129 737.542 L 446.2 699.87 C 439.204 597.94 415.578 532.98 388.077 436.16 L 364.343 350.051 C 346.798 283.209 341.04 240.911 257.353 234.771 L 257.361 234.771 Z" style="fill: var(--icon-fill, #fff);"/>
  <path id="Numeral" d="M -148.536 -106.776 C -196.419 -106.776 -260.146 -102.935 -297.876 -137.853 C -332.588 -169.889 -324.288 -232.385 -285.048 -257.083 C -260.764 -272.45 -230.923 -271.352 -203.413 -271.421 L 708.977 -271.421 C 736.554 -271.353 759.742 -272.862 784.3 -257.632 C 829.371 -229.78 839.249 -167.079 796.648 -131.822 C 766.258 -106.645 699.166 -106.782 660.958 -106.782 L 660.958 682.128 C 697.11 682.128 753.706 676.571 784.168 695.916 C 831.365 725.826 830.062 797.516 784.168 827.976 C 758.512 844.989 705.209 846.704 674.678 846.773 L -196.552 846.773 C -223.718 846.635 -254.382 845.812 -278.668 832.092 C -337.458 799.232 -329.432 719.112 -278.668 692.082 C -250.678 677.265 -182.078 682.135 -148.528 682.135 L -148.528 -106.775 L -148.536 -106.776 Z M 173.884 -106.776 L 16.104 -106.776 L 16.104 682.134 L 173.064 680.419 L 173.888 -106.771 L 173.884 -106.776 Z M 496.304 -106.776 L 338.524 -106.776 L 338.524 682.134 L 496.304 682.134 L 496.304 -106.776 Z" fill="#c70000" stroke-width="256.22" style="paint-order: stroke fill markers; stroke: var(--icon-stroke, #000);"/>
</svg>